<svg width="328" height="212" viewBox="0 0 328 212" fill="none" xmlns="http://www.w3.org/2000/svg">
<g filter="url(#filter0_d_107_138)">
<g clip-path="url(#clip0_107_138)">
<rect x="24" y="16" width="280" height="168" rx="16" fill="#111827"/>
<ellipse cx="238.501" cy="86.5011" rx="67.0078" ry="104.486" transform="rotate(-45 238.501 86.5011)" fill="#A855F7"/>
<path opacity="0.5" d="M71.3137 35.5681C48.4621 24.6708 25.7021 20.2368 6.1245 22.8681C-13.4531 25.4995 -28.8995 35.0686 -38.1171 50.2762C-47.3348 65.4837 -49.8769 85.5926 -45.3984 107.872C-40.9198 130.152 -29.6376 153.522 -13.0838 174.81C3.46997 196.097 24.4931 214.27 47.1306 226.861C69.7681 239.452 92.9229 245.85 113.451 245.187C133.979 244.524 150.884 236.832 161.873 223.155C172.861 209.478 177.399 190.479 174.87 168.739L64.0001 133.682L71.3137 35.5681Z" fill="#A855F7"/>
<ellipse cx="192.96" cy="27.9602" rx="38.7249" ry="60.3263" transform="rotate(-45 192.96 27.9602)" fill="#2DD4BF" fill-opacity="0.8"/>
<ellipse cx="24" cy="160" rx="38.7249" ry="60.3263" transform="rotate(-45 24 160)" fill="#2DD4BF" fill-opacity="0.64"/>
<ellipse cx="268.36" cy="132.723" rx="64.7259" ry="62.4069" transform="rotate(-45 268.36 132.723)" fill="#2DD4BF"/>
<g filter="url(#filter1_b_107_138)">
<rect x="24" y="16" width="280" height="168" fill="#111827" fill-opacity="0.4"/>
</g>
<g opacity="0.8" clip-path="url(#clip1_107_138)">
<path d="M77.6293 53.024L77.3293 51.524H73.9773L73.444 53.0133L70.7573 53.0187C72.0364 49.9429 73.3181 46.8682 74.6027 43.7947C74.8213 43.2733 75.2093 43.008 75.7813 43.0107C76.2187 43.0147 76.932 43.0147 77.9227 43.012L80 53.02L77.6293 53.024ZM74.732 49.4693H76.892L76.0853 45.7093L74.732 49.4693ZM57.4133 43.0093L60.1147 43.012L55.9387 53.0253L53.204 53.0227C52.5163 50.3778 51.8372 47.7306 51.1667 45.0813C51.0333 44.5533 50.7693 44.184 50.2613 44.0093C49.511 43.7579 48.7571 43.517 48 43.2867L48 43.0133H52.316C53.0627 43.0133 53.4987 43.3747 53.6387 44.116C53.78 44.8587 54.1347 46.7493 54.7053 49.788L57.4133 43.0093ZM63.8267 43.012L61.6907 53.0227L59.12 53.02L61.2533 43.0093L63.8267 43.012ZM69.04 42.8267C69.8093 42.8267 70.7787 43.0667 71.336 43.2867L70.8853 45.3627C70.3813 45.16 69.552 44.8867 68.8547 44.896C67.8413 44.9133 67.2147 45.3387 67.2147 45.7467C67.2147 46.4107 68.3027 46.7453 69.4227 47.4707C70.7013 48.2973 70.8693 49.04 70.8533 49.8467C70.836 51.5213 69.4227 53.1733 66.4413 53.1733C65.0813 53.1533 64.5907 53.0387 63.4813 52.6453L63.9507 50.4787C65.08 50.952 65.5587 51.1027 66.524 51.1027C67.408 51.1027 68.1667 50.7453 68.1733 50.1227C68.1787 49.68 67.9067 49.46 66.9147 48.9133C65.9227 48.3653 64.5307 47.6067 64.5493 46.084C64.572 44.1347 66.4187 42.8267 69.0413 42.8267H69.04Z" fill="#F9FAFB"/>
</g>
<g opacity="0.8">
<path d="M268 38.25C266.072 38.25 264.187 38.8218 262.583 39.8932C260.98 40.9645 259.73 42.4873 258.992 44.2688C258.254 46.0504 258.061 48.0108 258.437 49.9021C258.814 51.7934 259.742 53.5307 261.106 54.8943C262.469 56.2579 264.207 57.1865 266.098 57.5627C267.989 57.9389 269.95 57.7458 271.731 57.0078C273.513 56.2699 275.035 55.0202 276.107 53.4168C277.178 51.8134 277.75 49.9284 277.75 48C277.747 45.415 276.719 42.9366 274.891 41.1087C273.063 39.2808 270.585 38.2527 268 38.25ZM268 56.25C266.368 56.25 264.773 55.7661 263.417 54.8596C262.06 53.9531 261.002 52.6646 260.378 51.1571C259.754 49.6496 259.59 47.9908 259.909 46.3905C260.227 44.7902 261.013 43.3202 262.166 42.1664C263.32 41.0126 264.79 40.2268 266.391 39.9085C267.991 39.5902 269.65 39.7536 271.157 40.378C272.665 41.0024 273.953 42.0598 274.86 43.4165C275.766 44.7733 276.25 46.3683 276.25 48C276.248 50.1873 275.378 52.2843 273.831 53.8309C272.284 55.3775 270.187 56.2475 268 56.25ZM265.1 45.3994C265.524 46.2007 265.746 47.0935 265.746 48C265.746 48.9065 265.524 49.7993 265.1 50.6006C265.055 50.6898 264.993 50.7691 264.917 50.8339C264.842 50.8988 264.754 50.9478 264.658 50.9782C264.563 51.0085 264.463 51.0196 264.364 51.0108C264.264 51.002 264.168 50.9734 264.08 50.9267C263.991 50.88 263.913 50.8162 263.85 50.739C263.787 50.6618 263.74 50.5728 263.711 50.4771C263.683 50.3814 263.674 50.281 263.685 50.1818C263.696 50.0826 263.726 49.9866 263.775 49.8994C264.089 49.3155 264.253 48.6629 264.253 48C264.253 47.3371 264.089 46.6845 263.775 46.1006C263.687 45.9253 263.671 45.7224 263.73 45.5355C263.79 45.3486 263.921 45.1925 264.094 45.1008C264.268 45.009 264.47 44.9889 264.658 45.0447C264.846 45.1005 265.005 45.2279 265.1 45.3994ZM270.35 42.3994C271.273 44.1231 271.755 46.0478 271.755 48.0028C271.755 49.9578 271.273 51.8826 270.35 53.6063C270.25 53.7702 270.092 53.8896 269.906 53.9399C269.721 53.9902 269.523 53.9676 269.354 53.8766C269.185 53.7856 269.058 53.6333 268.997 53.451C268.937 53.2687 268.949 53.0702 269.031 52.8966C269.838 51.3905 270.26 49.7085 270.26 48C270.26 46.2915 269.838 44.6095 269.031 43.1034C268.938 42.9279 268.917 42.7223 268.975 42.5319C269.033 42.3415 269.164 42.1819 269.34 42.0881C269.515 41.9944 269.721 41.9742 269.911 42.0321C270.102 42.0899 270.261 42.221 270.355 42.3966L270.35 42.3994ZM267.725 43.8994C268.399 45.162 268.751 46.5709 268.751 48.0019C268.751 49.4328 268.399 50.8417 267.725 52.1044C267.68 52.1931 267.618 52.2718 267.541 52.3361C267.465 52.4004 267.377 52.4488 267.282 52.4787C267.187 52.5086 267.087 52.5192 266.988 52.51C266.889 52.5008 266.793 52.472 266.705 52.4252C266.617 52.3784 266.539 52.3145 266.476 52.2374C266.413 52.1603 266.366 52.0713 266.338 51.9759C266.31 51.8804 266.301 51.7802 266.312 51.6812C266.323 51.5823 266.353 51.4864 266.402 51.3994C266.959 50.3538 267.251 49.1869 267.251 48.0019C267.251 46.8168 266.959 45.65 266.402 44.6044C266.353 44.5173 266.323 44.4215 266.312 44.3225C266.301 44.2235 266.31 44.1234 266.338 44.0279C266.366 43.9324 266.413 43.8435 266.476 43.7663C266.539 43.6892 266.617 43.6254 266.705 43.5786C266.793 43.5318 266.889 43.5029 266.988 43.4937C267.087 43.4845 267.187 43.4952 267.282 43.5251C267.377 43.5549 267.465 43.6034 267.541 43.6677C267.618 43.7319 267.68 43.8107 267.725 43.8994Z" fill="#F9FAFB"/>
</g>
</g>
<rect x="24.5" y="16.5" width="279" height="167" rx="15.5" stroke="#374151"/>
</g>
<defs>
<filter id="filter0_d_107_138" x="0" y="-4" width="328" height="216" filterUnits="userSpaceOnUse" color-interpolation-filters="sRGB">
<feFlood flood-opacity="0" result="BackgroundImageFix"/>
<feColorMatrix in="SourceAlpha" type="matrix" values="0 0 0 0 0 0 0 0 0 0 0 0 0 0 0 0 0 0 127 0" result="hardAlpha"/>
<feOffset dy="4"/>
<feGaussianBlur stdDeviation="12"/>
<feComposite in2="hardAlpha" operator="out"/>
<feColorMatrix type="matrix" values="0 0 0 0 0 0 0 0 0 0 0 0 0 0 0 0 0 0 0.25 0"/>
<feBlend mode="normal" in2="BackgroundImageFix" result="effect1_dropShadow_107_138"/>
<feBlend mode="normal" in="SourceGraphic" in2="effect1_dropShadow_107_138" result="shape"/>
</filter>
<filter id="filter1_b_107_138" x="-24" y="-32" width="376" height="264" filterUnits="userSpaceOnUse" color-interpolation-filters="sRGB">
<feFlood flood-opacity="0" result="BackgroundImageFix"/>
<feGaussianBlur in="BackgroundImageFix" stdDeviation="24"/>
<feComposite in2="SourceAlpha" operator="in" result="effect1_backgroundBlur_107_138"/>
<feBlend mode="normal" in="SourceGraphic" in2="effect1_backgroundBlur_107_138" result="shape"/>
</filter>
<clipPath id="clip0_107_138">
<rect x="24" y="16" width="280" height="168" rx="16" fill="white"/>
</clipPath>
<clipPath id="clip1_107_138">
<rect width="32" height="32" fill="white" transform="translate(48 32)"/>
</clipPath>
</defs>
</svg>
